<svg xmlns="http://www.w3.org/2000/svg" viewBox="0 0 820 430" width="820" height="430" role="img" aria-label="Ablation of step time" font-family="ui-sans-serif,-apple-system,BlinkMacSystemFont,'Segoe UI',Roboto,'Helvetica Neue',Arial,sans-serif"><rect width="820" height="430" fill="#fcfcfb"/><text x="24.0" y="34.0" fill="#0b0b0b" font-size="17" text-anchor="start" font-weight="600">The two optimisations compose additively</text><text x="24.0" y="55.0" fill="#52514e" font-size="12.5" text-anchor="start" font-weight="400">Step time on the code workload; all four cells measured in one session. Alone the savings are -19.9 and</text><text x="24.0" y="72.0" fill="#52514e" font-size="12.5" text-anchor="start" font-weight="400">-13.3 ms, summing to -33.2 against -33.7 together.</text><line x1="80.0" y1="364.0" x2="780.0" y2="364.0" stroke="#e1e0d9" stroke-width="1"/><text x="68.0" y="368.0" fill="#898781" font-size="11.5" text-anchor="end" font-weight="400">0</text><line x1="80.0" y1="324.0" x2="780.0" y2="324.0" stroke="#e1e0d9" stroke-width="1"/><text x="68.0" y="328.0" fill="#898781" font-size="11.5" text-anchor="end" font-weight="400">20</text><line x1="80.0" y1="284.0" x2="780.0" y2="284.0" stroke="#e1e0d9" stroke-width="1"/><text x="68.0" y="288.0" fill="#898781" font-size="11.5" text-anchor="end" font-weight="400">40</text><line x1="80.0" y1="244.0" x2="780.0" y2="244.0" stroke="#e1e0d9" stroke-width="1"/><text x="68.0" y="248.0" fill="#898781" font-size="11.5" text-anchor="end" font-weight="400">60</text><line x1="80.0" y1="204.0" x2="780.0" y2="204.0" stroke="#e1e0d9" stroke-width="1"/><text x="68.0" y="208.0" fill="#898781" font-size="11.5" text-anchor="end" font-weight="400">80</text><line x1="80.0" y1="164.0" x2="780.0" y2="164.0" stroke="#e1e0d9" stroke-width="1"/><text x="68.0" y="168.0" fill="#898781" font-size="11.5" text-anchor="end" font-weight="400">100</text><line x1="80.0" y1="124.0" x2="780.0" y2="124.0" stroke="#e1e0d9" stroke-width="1"/><text x="68.0" y="128.0" fill="#898781" font-size="11.5" text-anchor="end" font-weight="400">120</text><path d="M119.5,364.0 V155.6 a4,4 0 0 1 4,-4 H211.5 a4,4 0 0 1 4,4 V364.0 Z" fill="#256abf"/><text x="167.5" y="141.6" fill="#0b0b0b" font-size="13.5" text-anchor="middle" font-weight="600">106.2 ms</text><text x="167.5" y="390.0" fill="#52514e" font-size="12" text-anchor="middle" font-weight="400">baseline</text><path d="M294.5,191.4 V155.6 a4,4 0 0 1 4,-4 H386.5 a4,4 0 0 1 4,4 V191.4 Z" fill="#eb6834"/><text x="342.5" y="141.6" fill="#eb6834" font-size="13" text-anchor="middle" font-weight="600">-19.9</text><line x1="266.5" y1="151.6" x2="294.5" y2="151.6" stroke="#c3c2b7" stroke-width="1" stroke-dasharray="3 3"/><line x1="390.5" y1="191.4" x2="418.5" y2="191.4" stroke="#c3c2b7" stroke-width="1" stroke-dasharray="3 3"/><text x="342.5" y="390.0" fill="#52514e" font-size="12" text-anchor="middle" font-weight="400">reduced draft</text><text x="342.5" y="404.0" fill="#52514e" font-size="12" text-anchor="middle" font-weight="400">vocabulary</text><path d="M469.5,219.0 V195.4 a4,4 0 0 1 4,-4 H561.5 a4,4 0 0 1 4,4 V219.0 Z" fill="#eb6834"/><text x="517.5" y="181.4" fill="#eb6834" font-size="13" text-anchor="middle" font-weight="600">-13.8</text><line x1="441.5" y1="191.4" x2="469.5" y2="191.4" stroke="#c3c2b7" stroke-width="1" stroke-dasharray="3 3"/><line x1="565.5" y1="219.0" x2="593.5" y2="219.0" stroke="#c3c2b7" stroke-width="1" stroke-dasharray="3 3"/><text x="517.5" y="390.0" fill="#52514e" font-size="12" text-anchor="middle" font-weight="400">+ fp8 side</text><text x="517.5" y="404.0" fill="#52514e" font-size="12" text-anchor="middle" font-weight="400">layers</text><path d="M644.5,364.0 V223.0 a4,4 0 0 1 4,-4 H736.5 a4,4 0 0 1 4,4 V364.0 Z" fill="#0d366b"/><text x="692.5" y="209.0" fill="#0b0b0b" font-size="13.5" text-anchor="middle" font-weight="600">72.5 ms</text><text x="692.5" y="390.0" fill="#52514e" font-size="12" text-anchor="middle" font-weight="400">measured</text><text x="692.5" y="404.0" fill="#52514e" font-size="12" text-anchor="middle" font-weight="400">combined</text><line x1="80.0" y1="364.0" x2="780.0" y2="364.0" stroke="#c3c2b7" stroke-width="1"/><text x="68.0" y="110.0" fill="#898781" font-size="11.5" text-anchor="end" font-weight="400">ms/step</text></svg>